<svg data-v-2cb57da0="" version="1.0" xmlns="http://www.w3.org/2000/svg" xmlns:xlink="http://www.w3.org/1999/xlink" width="100%" height="100%" viewBox="0 0 340.000000 250.000000" preserveAspectRatio="xMidYMid meet" color-interpolation-filters="sRGB" style="margin: auto;"><rect data-v-2cb57da0="" x="0" y="0" width="100%" height="100%" fill="#ffffff" fill-opacity="1" class="background"></rect> <rect data-v-2cb57da0="" x="0" y="0" width="100%" height="100%" fill="url(#watermark)" fill-opacity="1" class="watermarklayer"></rect> <g data-v-2cb57da0="" fill="#6da3ec" class="bordersvg b-d1" transform="translate(71.42576000094414,68.30988618189394)"><path fill-opacity="0" stroke="#6da3ec" stroke-width="3" d="M 103.38021850585938 23.980995178222656 A 56.69010925292969 56.69010925292969 0 1 0 103.38021850585938 89.39922332763672"></path> <g transform="translate(10,23.980995178222656)"><g><rect data-gra="graph-name-bg" stroke-width="2" class="i-icon-bg" x="0" y="0" width="186.76043701171875" height="65.41822814941406" fill-opacity="0"></rect> <!----> <!----> </g> <g transform="translate(10,3)"><g data-gra="path-name" fill-rule="" class="tp-name"><g transform="scale(1)"><g><path d="M24.2-40.04L24.2-40.04Q20.07-35.8 17.13-31.54 14.19-27.28 12.27-23.18 10.34-19.09 9.21-15.29 8.09-11.49 7.62-8.14 7.15-4.79 7.09-2.04L7.09-2.04Q8.8-2.09 9.93-1.95 11.05-1.81 11.74-1.59 12.43-1.38 12.87-1.16L12.87-1.16Q13.04-1.1 13.2-1.04L13.2-1.04Q13.42-0.99 13.64-0.82 13.86-0.66 13.86-0.39L13.86-0.39Q13.86-0.06 13.64 0.06 13.42 0.17 13.14 0.14 12.87 0.11 12.71 0L12.71 0Q9.9-0.49 8.14-0.58 6.38-0.66 5.22-0.55 4.07-0.44 3.14-0.28L3.14-0.28Q2.53-0.11 1.87-0.03 1.21 0.06 0.39 0.06L0.39 0.06Q-0.28-1.49 0.19-4.95 0.66-8.42 2.06-13.01 3.46-17.6 5.64-22.52 7.81-27.45 10.53-31.93 13.26-36.41 16.39-39.66L16.39-39.66Q16.06-39.77 15.04-39.96 14.03-40.15 12.51-40.23 11-40.31 9.38-40.12 7.75-39.93 6.24-39.3 4.73-38.66 3.63-37.4L3.63-37.4Q3.3-36.96 2.86-36.85 2.42-36.74 2.2-36.99 1.98-37.23 2.31-37.95L2.31-37.95Q3.25-39.38 4.73-40.18 6.21-40.98 8.06-41.25 9.9-41.52 11.94-41.47 13.97-41.41 15.98-41.14 17.98-40.87 19.86-40.59L19.86-40.59Q21.12-40.42 22.22-40.26 23.32-40.09 24.2-40.04ZM44.49 0.82L44.49 0.82Q44 1.04 42.93 1.07 41.86 1.1 40.86 0.8 39.88 0.49 39.66-0.22L39.66-0.22Q39.38-1.54 39.77-5.5 40.15-9.46 40.92-14.57 41.69-19.69 42.52-24.48 43.34-29.26 43.83-32.23L43.83-32.23Q42.84-29.59 40.95-24.12 39.05-18.64 37.4-13.7 35.75-8.74 35.53-7.59L35.53-7.59Q35.47-7.42 34.62-7.4 33.77-7.37 32.64-7.59 31.52-7.81 30.66-8.25 29.81-8.69 29.81-9.4L29.81-9.4Q29.75-13.09 29.97-16.66 30.2-20.24 30.52-23.65L30.52-23.65Q30.69-26.07 30.88-28.41 31.07-30.75 31.13-33.05L31.13-33.05Q29.86-29.09 28.43-23.1 27-17.11 25.74-11.25 24.47-5.39 23.76-1.93L23.76-1.93Q23.7-1.71 23.65-1.49L23.65-1.49Q23.43-0.77 22.49-0.52 21.56-0.28 20.46-0.49 19.36-0.71 18.54-1.38 17.71-2.04 17.76-3.19L17.76-3.19Q17.93-7.15 18.75-12.98 19.58-18.81 20.63-24.75 21.67-30.69 22.55-35.06 23.43-39.44 23.7-40.42L23.7-40.42Q24.09-40.76 24.97-40.98 25.85-41.2 26.84-41.06 27.83-40.92 28.49-40.18 29.15-39.44 28.98-37.84L28.98-37.84Q28.1-33.05 27.47-28.68 26.84-24.31 26.34-20.79L26.34-20.79Q25.85-17.43 25.52-15.23L25.52-15.23Q26.13-17.66 26.78-20.68L26.78-20.68Q27.34-23.27 27.94-25.88 28.54-28.49 29.23-30.75 29.92-33 30.61-34.43 31.29-35.86 32.06-36.13L32.06-36.13Q32.5-36.3 33.41-36.27 34.32-36.24 35.31-35.89 36.3-35.53 36.96-34.7L36.96-34.7Q37.34-34.27 37.37-32.17 37.4-30.09 37.21-27.14 37.02-24.2 36.8-21.12L36.8-21.12Q36.52-17.77 36.36-15.23L36.36-15.23Q37.84-18.98 38.99-22.14 40.15-25.3 41.03-27.89L41.03-27.89Q42.02-30.86 42.82-32.97 43.61-35.09 44.36-36.3 45.1-37.51 45.87-37.79L45.87-37.79Q45.87-37.79 46.36-37.7 46.86-37.62 47.55-37.4 48.23-37.18 48.81-36.77 49.39-36.35 49.55-35.7L49.55-35.7Q49.66-34.48 49.03-29.34 48.4-24.2 47.47-17.68 46.53-11.17 45.68-5.88 44.83-0.6 44.49 0.82ZM63.03-12.27L63.03-12.27Q62.31-10.67 61.66-9.46 61-8.25 60.78-7.87L60.78-7.87Q58.96-4.79 57.5-3 56.05-1.21 54.7-0.55 53.35 0.11 51.92-0.11L51.92-0.11Q51.37-0.22 51.04-0.6 50.71-0.99 50.55-1.43 50.38-1.87 50.27-2.2L50.27-2.2Q50.22-2.31 50.22-2.42L50.22-2.42Q50.11-3.14 50.27-4.59 50.44-6.05 50.74-7.84 51.04-9.63 51.37-11.38L51.37-11.38Q51.76-13.31 51.98-14.63L51.98-14.63Q52.09-15.46 52.55-16.23 53.02-17 53.82-17.43 54.62-17.88 55.77-17.71L55.77-17.71Q55.77-17.71 55.8-17.68 55.83-17.66 55.88-17.63 55.94-17.6 56.02-17.52 56.1-17.43 56.13-17.3 56.16-17.16 56.16-16.94 56.16-16.72 56.1-16.45L56.1-16.45Q55.99-15.68 55.55-13.7L55.55-13.7Q55.16-12.04 54.75-9.98 54.34-7.92 54.01-6.02 53.68-4.13 53.63-2.89 53.57-1.65 53.9-1.54L53.9-1.54Q54.56-1.43 55.96-2.92 57.37-4.4 58.96-6.9 60.55-9.4 61.88-12.43L61.88-12.43Q61.98-12.71 62.09-12.79 62.2-12.87 62.31-12.9 62.42-12.93 62.48-12.93L62.48-12.93 62.59-12.93Q62.7-12.87 62.84-12.81 62.98-12.76 63.06-12.65 63.14-12.54 63.03-12.27ZM56.59-20.57L56.59-20.57Q55.44-20.3 54.81-20.57 54.18-20.84 53.95-21.48 53.73-22.11 53.95-22.88L53.95-22.88Q54.18-23.54 54.78-23.82 55.39-24.09 55.99-24.12 56.59-24.14 56.93-24.09L56.93-24.09Q57.26-23.98 57.26-23.24 57.26-22.5 57.06-21.67 56.87-20.84 56.59-20.57ZM70.13 2.75L70.13 2.75Q69.96 2.75 69.38 2.61 68.81 2.48 68.2 2.25 67.59 2.04 67.21 1.71L67.21 1.71Q66.66 1.1 66.88-0.49 67.1-2.09 67.7-4.13 68.31-6.16 68.92-7.97L68.92-7.97Q69.58-10.06 69.8-11L69.8-11Q69.85-11.33 69.91-11.66L69.91-11.66Q70.07-12.48 70.1-13.06 70.13-13.64 69.85-14.03L69.85-14.03Q68.42-12.32 67.4-10.72 66.39-9.13 65.67-7.7 64.95-6.27 64.46-5.06L64.46-5.06Q63.97-3.96 63.55-3.14 63.14-2.31 62.67-1.9 62.21-1.49 61.6-1.54L61.6-1.54Q61-1.59 60.45-1.84 59.9-2.09 59.51-2.48 59.13-2.86 59.13-3.41L59.13-3.41Q59.13-5.45 59.73-8.44 60.34-11.44 61-13.94 61.66-16.45 61.93-17L61.93-17Q62.21-17.11 62.78-17.24 63.36-17.38 63.99-17.38 64.63-17.38 65.04-17.13 65.45-16.89 65.4-16.28L65.4-16.28Q65.17-15.4 64.9-14.3L64.9-14.3Q64.24-11.55 63.66-8.8 63.09-6.05 63.09-4.9L63.09-4.9Q63.53-5.88 64.3-7.45 65.06-9.02 66.03-10.7 66.99-12.38 68.03-13.64 69.08-14.9 70.02-15.23L70.02-15.23Q70.4-15.29 70.87-15.18 71.34-15.07 71.83-14.9L71.83-14.9Q71.83-14.85 71.89-14.85L71.89-14.85Q72.98-14.19 73.4-13.5 73.81-12.81 73.81-12.07 73.81-11.33 73.65-10.51L73.65-10.51Q73.65-10.29 73.59-10.06L73.59-10.06Q73.48-9.4 73.09-8 72.71-6.6 72.27-4.95L72.27-4.95Q71.83-3.41 71.45-1.98 71.06-0.55 70.84 0.36 70.62 1.26 70.73 1.32L70.73 1.32 70.84 1.38Q71.12 1.43 72.13 0.55 73.15-0.33 74.53-2.09 75.9-3.85 77.28-6.43 78.65-9.02 79.59-12.38L79.59-12.38Q79.7-12.65 79.83-12.71 79.97-12.76 80.14-12.71L80.14-12.71Q80.3-12.65 80.47-12.51 80.63-12.38 80.58-12.1L80.58-12.1Q79.37-8.03 77.77-5.14 76.17-2.25 74.61-0.47 73.04 1.32 71.83 2.09 70.62 2.86 70.13 2.75ZM85.86-7.21L85.86-7.21Q86.13-9.57 86.46-11.66L86.46-11.66Q86.68-13.14 86.9-14.96L86.9-14.96Q86.13-16.23 85.17-16.06 84.2-15.89 83.24-14.41 82.28-12.93 81.56-10.23L81.56-10.23Q81.02-7.92 80.96-6.35 80.91-4.79 81.29-3.9L81.29-3.9Q81.9-2.81 82.53-2.83 83.16-2.86 83.79-3.58 84.43-4.29 84.95-5.28 85.47-6.27 85.86-7.21ZM96.75-38.72L96.75-38.72Q96.31-39.05 95.84-38.12 95.37-37.18 94.9-35.42 94.44-33.66 93.97-31.43 93.5-29.21 93.06-26.95L93.06-26.95Q92.79-25.57 92.56-24.36L92.56-24.36Q93.28-25.36 94.16-26.79 95.04-28.21 95.81-29.92L95.81-29.92Q95.87-30.14 96.03-30.47L96.03-30.47Q96.31-31.24 96.72-32.4 97.13-33.55 97.38-34.79 97.63-36.02 97.52-37.07 97.41-38.12 96.75-38.72ZM97.08-12.21L97.08-12.21Q97.13-12.6 97.3-12.73 97.46-12.87 97.68-12.76L97.68-12.76Q97.9-12.65 97.98-12.38 98.06-12.1 97.96-11.82L97.96-11.82Q96.97-8.03 95.84-5.58 94.71-3.14 93.58-1.73 92.46-0.33 91.47 0.28 90.48 0.88 89.71 0.99 88.94 1.1 88.5 0.94L88.5 0.94Q87.84 0.71 87.23 0.17 86.63-0.39 86.24-1.4 85.86-2.42 85.75-4.13L85.75-4.13Q84.98-2.81 83.96-1.76 82.94-0.71 81.84-0.3 80.74 0.11 79.67-0.44 78.59-0.99 77.72-2.86L77.72-2.86Q77.06-4.29 77.22-6.6 77.39-8.91 78.1-11.28L78.1-11.28Q79.09-13.92 80.41-15.4 81.73-16.89 83.11-17.38 84.48-17.88 85.58-17.52 86.68-17.16 87.18-16.06L87.18-16.06Q87.67-18.86 88.52-23.18 89.38-27.5 89.93-29.75L89.93-29.75Q90.7-32.84 91.58-35.2 92.46-37.56 93.56-38.8 94.66-40.04 96.09-39.82L96.09-39.82 96.14-39.82Q96.31-39.77 96.69-39.63 97.08-39.49 97.52-39.08 97.96-38.66 98.28-37.9L98.28-37.9Q98.51-37.18 98.37-35.75 98.23-34.32 97.82-32.67 97.41-31.02 96.8-29.64L96.8-29.64Q96.09-27.89 95.31-26.57 94.55-25.25 93.8-24.25 93.06-23.27 92.4-22.55L92.4-22.55Q90.97-15.51 90.28-10.78 89.59-6.05 89.73-3.71 89.87-1.38 90.97-1.38L90.97-1.38Q91.25-1.32 91.82-1.57 92.4-1.81 93.2-2.86 94-3.9 94.98-6.13 95.98-8.36 97.08-12.21ZM122.76 0.82L122.76 0.82Q122.27 1.04 121.19 1.07 120.12 1.1 119.13 0.8 118.14 0.49 117.92-0.22L117.92-0.22Q117.65-1.54 118.03-5.5 118.42-9.46 119.19-14.57 119.96-19.69 120.78-24.48 121.61-29.26 122.1-32.23L122.1-32.23Q121.11-29.59 119.21-24.12 117.31-18.64 115.67-13.7 114.02-8.74 113.8-7.59L113.8-7.59Q113.74-7.42 112.89-7.4 112.04-7.37 110.91-7.59 109.78-7.81 108.93-8.25 108.08-8.69 108.08-9.4L108.08-9.4Q108.02-13.09 108.24-16.66 108.46-20.24 108.79-23.65L108.79-23.65Q108.96-26.07 109.15-28.41 109.34-30.75 109.4-33.05L109.4-33.05Q108.13-29.09 106.7-23.1 105.27-17.11 104.01-11.25 102.74-5.39 102.03-1.93L102.03-1.93Q101.97-1.71 101.92-1.49L101.92-1.49Q101.7-0.77 100.76-0.52 99.83-0.28 98.73-0.49 97.63-0.71 96.8-1.38 95.98-2.04 96.03-3.19L96.03-3.19Q96.2-7.15 97.02-12.98 97.85-18.81 98.89-24.75 99.94-30.69 100.82-35.06 101.7-39.44 101.97-40.42L101.97-40.42Q102.36-40.76 103.24-40.98 104.12-41.2 105.11-41.06 106.09-40.92 106.76-40.18 107.42-39.44 107.25-37.84L107.25-37.84Q106.37-33.05 105.74-28.68 105.11-24.31 104.61-20.79L104.61-20.79Q104.12-17.43 103.79-15.23L103.79-15.23Q104.39-17.66 105.05-20.68L105.05-20.68Q105.6-23.27 106.21-25.88 106.81-28.49 107.5-30.75 108.19-33 108.87-34.43 109.56-35.86 110.33-36.13L110.33-36.13Q110.77-36.3 111.68-36.27 112.59-36.24 113.58-35.89 114.56-35.53 115.23-34.7L115.23-34.7Q115.61-34.27 115.64-32.17 115.67-30.09 115.47-27.14 115.28-24.2 115.06-21.12L115.06-21.12Q114.79-17.77 114.62-15.23L114.62-15.23Q116.11-18.98 117.26-22.14 118.42-25.3 119.3-27.89L119.3-27.89Q120.29-30.86 121.08-32.97 121.88-35.09 122.62-36.3 123.37-37.51 124.14-37.79L124.14-37.79Q124.14-37.79 124.63-37.7 125.13-37.62 125.81-37.4 126.5-37.18 127.08-36.77 127.66-36.35 127.82-35.7L127.82-35.7Q127.93-34.48 127.3-29.34 126.67-24.2 125.73-17.68 124.8-11.17 123.94-5.88 123.09-0.6 122.76 0.82ZM149.66-12.48L149.66-12.48Q149.66-12.27 149.02-10.26 148.39-8.25 147.4-5.75 146.41-3.25 145.25-1.18 144.1 0.88 143.06 1.49L143.06 1.49Q143 1.54 142.95 1.54L142.95 1.54Q142.56 1.71 142.15 1.84 141.74 1.98 141.3 1.98L141.3 1.98Q139.87 1.87 139.15 0.94 138.44 0 138.27-1.65 138.11-3.3 138.38-5.67L138.38-5.67Q137.72-3.9 136.59-2.5 135.47-1.1 134.15-0.39 132.83 0.33 131.7 0 130.57-0.33 129.91-1.98 129.25-3.63 129.42-6.99L129.42-6.99Q129.58-8.63 130.13-10.51 130.68-12.38 131.62-14.05 132.55-15.73 133.87-16.72 135.19-17.71 136.9-17.66L136.9-17.66Q137.78-17.6 138.38-17.32 138.99-17.05 139.34-16.66 139.7-16.28 139.87-15.92 140.03-15.56 140.09-15.32 140.14-15.07 140.14-15.07L140.14-15.07Q139.81-14.74 139.53-14.93 139.26-15.13 138.93-15.56L138.93-15.56Q138.66-15.89 138.35-16.2 138.05-16.5 137.61-16.55L137.61-16.55Q137.12-16.61 136.43-15.92 135.74-15.23 135.03-13.92 134.31-12.6 133.81-10.7 133.32-8.8 133.27-6.43L133.27-6.43Q133.27-5 133.59-4.32 133.93-3.63 134.31-3.41 134.7-3.19 134.86-3.19L134.86-3.19Q135.58-3.14 136.32-4.24 137.06-5.33 137.72-7.01 138.38-8.69 138.85-10.45 139.31-12.21 139.37-13.53L139.37-13.53Q139.53-13.64 140.14-13.78 140.75-13.92 141.46-13.97 142.18-14.03 142.62-13.8L142.62-13.8Q142.78-13.7 142.92-13.42 143.06-13.14 143.06-12.87L143.06-12.87Q143.06-12.87 142.75-11.55 142.45-10.23 142.12-8.33 141.79-6.43 141.6-4.51 141.41-2.58 141.54-1.29 141.68 0 142.4 0.06L142.4 0.06Q143.17 0 144.05-1.32 144.93-2.64 145.75-4.59 146.58-6.54 147.24-8.47 147.9-10.39 148.28-11.61L148.28-11.61Q148.61-12.6 148.67-12.65L148.67-12.65Q148.78-12.98 149.02-13.06 149.27-13.14 149.46-13.01 149.66-12.87 149.66-12.48ZM155.81-7.7L155.81-7.7Q154.28-6.71 153.45-5.75 152.63-4.79 152.32-3.93 152.02-3.08 152.1-2.56 152.19-2.04 152.52-1.98L152.52-1.98Q153.28-2.86 154.19-4.4 155.1-5.94 155.81-7.7ZM165.94-13.14L165.94-13.14Q166.16-13.2 166.27-13.23 166.38-13.26 166.43-13.23 166.49-13.2 166.54-13.2L166.54-13.2Q166.59-13.14 166.65-13.14L166.65-13.14Q166.81-12.98 166.73-12.76 166.65-12.54 166.54-12.43L166.54-12.43Q165.77-11.94 164.34-11.25 162.91-10.56 160.71-9.63L160.71-9.63Q160.11-7.87 159.2-6.21 158.29-4.57 157.44-3.35 156.59-2.15 156.15-1.65L156.15-1.65Q156.15-1.65 155.87-1.4 155.59-1.16 155.13-0.88 154.66-0.6 154.06-0.47 153.45-0.33 152.79-0.49L152.79-0.49Q152.68-0.55 152.57-0.6L152.57-0.6Q152.3-0.71 151.94-0.94 151.58-1.16 151.33-1.59 151.09-2.04 151.14-2.81L151.14-2.81Q151.25-4.18 151.99-5.36 152.74-6.54 153.92-7.54 155.1-8.53 156.42-9.29L156.42-9.29Q157.19-10.95 157.69-12.6 158.18-14.24 158.4-15.46L158.4-15.46Q158.51-16.17 158.48-16.53 158.46-16.89 158.34-17.02 158.24-17.16 158.13-17.16L158.13-17.16 158.07-17.21Q156.59-17.43 155.13-15.37 153.67-13.31 152.35-9.71 151.03-6.11 149.93-1.65 148.83 2.81 148.09 7.34 147.34 11.88 147.02 15.79L147.02 15.79Q146.96 16.89 146.58 17.3 146.19 17.71 145.42 17.93L145.42 17.93Q145.15 17.98 144.51 17.79 143.88 17.6 143.22 17.27 142.56 16.94 142.28 16.61L142.28 16.61 147.73-15.84Q147.84-16.45 148.14-16.86 148.45-17.27 148.83-17.38L148.83-17.38Q149.16-17.55 149.66-17.38 150.15-17.21 150.67-16.89 151.2-16.55 151.53-16.25 151.86-15.95 151.86-15.89L151.86-15.89 150.31-7.54Q150.59-8.58 151.09-10.04 151.58-11.49 152.3-13.01 153.01-14.52 153.92-15.79 154.83-17.05 155.98-17.74 157.14-18.43 158.51-18.15L158.51-18.15Q160.05-17.82 160.77-17.08 161.48-16.34 161.62-15.32 161.75-14.3 161.56-13.14 161.37-11.99 161.09-10.89L161.09-10.89Q162.47-11.44 163.46-11.94 164.45-12.43 165.06-12.71L165.06-12.71Q165.66-13.04 165.94-13.14Z" transform="translate(0.0037719309329986572, 41.477813720703125)"></path></g> <!----> <!----> <!----> <!----> <!----> <!----> <!----></g></g> <!----></g></g></g><defs v-gra="od"></defs></svg>