<svg width="20px" height="20px" viewBox="0 0 20 20" xmlns="http://www.w3.org/2000/svg" type="flash" cursor="pointer" fill="currentColor" overflow="visible" style="fill: rgb(117, 117, 125);"><path d="M4.123 10.771l-.052.07a.5.5 0 00.344.752l4.169.714-1.32 5.578c-.12.508.52.837.863.444l7.5-8.6.052-.07a.5.5 0 00-.344-.752l-4.17-.715 1.322-5.577c.12-.508-.52-.837-.864-.444l-7.5 8.6zm6.924-6.419l-.978 4.128-.012.084a.5.5 0 00.414.524l3.817.654-5.586 6.405.979-4.127.012-.084a.5.5 0 00-.414-.524l-3.818-.655 5.586-6.405z"></path></svg>