<svg width="20px" height="20px" viewBox="0 0 20 20" xmlns="http://www.w3.org/2000/svg" type="trash_menuIcon" cursor="pointer" fill="currentColor" overflow="visible" style="fill: rgb(117, 117, 125);"><path d="M16.5 5a.5.5 0 110 1h-1v9.5a1.5 1.5 0 01-1.356 1.493L14 17H6a1.5 1.5 0 01-1.5-1.5V6h-1a.5.5 0 010-1h13zm-2 1h-9v9.5a.5.5 0 00.41.492L6 16h8a.5.5 0 00.5-.5V6zm-6 2a.5.5 0 01.5.5v5a.5.5 0 11-1 0v-5a.5.5 0 01.5-.5zm3 0a.5.5 0 01.5.5v5a.5.5 0 11-1 0v-5a.5.5 0 01.5-.5zm2-5.5a.5.5 0 110 1h-7a.5.5 0 010-1h7z" fill-rule="evenodd"></path></svg>