<svg width="57" height="57" viewBox="0 0 57 57" fill="none" xmlns="http://www.w3.org/2000/svg">
<g opacity="0.5" filter="url(#filter0_f)">
<path fill-rule="evenodd" clip-rule="evenodd" d="M12.3501 47.5001H44.6501V51.3001H12.3501V47.5001Z" fill="#47494B"/>
</g>
<path d="M9.85 9.70001C9.85 7.68417 11.4842 6.05001 13.5 6.05001H43.5C45.5158 6.05001 47.15 7.68417 47.15 9.70001V47.3C47.15 49.3158 45.5158 50.95 43.5 50.95H13.5C11.4842 50.95 9.85 49.3158 9.85 47.3V9.70001Z" fill="white" stroke="#B2B3B4" stroke-width="0.7"/>
<rect x="21.8501" y="19.0003" width="19" height="1.9" rx="0.950001" fill="#B2B3B4"/>
<rect x="16.5303" y="18.7471" width="2.47" height="2.47" rx="0.791667" fill="#696A6B"/>
<path fill-rule="evenodd" clip-rule="evenodd" d="M30.4004 25.6501C30.4004 25.1255 30.8257 24.7001 31.3504 24.7001H38.9504C39.4751 24.7001 39.9004 25.1255 39.9004 25.6501C39.9004 26.1748 39.4751 26.6001 38.9504 26.6001H31.3504C30.8257 26.6001 30.4004 26.1748 30.4004 25.6501Z" fill="#B2B3B4"/>
<rect x="21.8501" y="24.7001" width="6.65" height="1.9" rx="0.950001" fill="#B2B3B4"/>
<path fill-rule="evenodd" clip-rule="evenodd" d="M16.5303 25.2387C16.5303 24.8015 16.8847 24.4471 17.3219 24.4471H18.2086C18.6458 24.4471 19.0003 24.8015 19.0003 25.2387V26.1254C19.0003 26.5626 18.6458 26.9171 18.2086 26.9171H17.3219C16.8847 26.9171 16.5303 26.5626 16.5303 26.1254V25.2387Z" fill="#696A6B"/>
<rect x="16.5303" y="30.147" width="2.47" height="2.47" rx="0.791667" fill="#696A6B"/>
<path fill-rule="evenodd" clip-rule="evenodd" d="M16.5303 36.6385C16.5303 36.2013 16.8847 35.8469 17.3219 35.8469H18.2086C18.6458 35.8469 19.0003 36.2013 19.0003 36.6385V37.5252C19.0003 37.9624 18.6458 38.3169 18.2086 38.3169H17.3219C16.8847 38.3169 16.5303 37.9624 16.5303 37.5252V36.6385Z" fill="#696A6B"/>
<path d="M22 31.3505C22 30.8258 22.4253 30.4005 22.95 30.4005H34.1999C34.7245 30.4005 35.1499 30.8258 35.1499 31.3505C35.1499 31.8751 34.7245 32.3005 34.1999 32.3005H22.95C22.4253 32.3005 22 31.8751 22 31.3505Z" fill="#B2B3B4"/>
<path d="M22 37.0503C22 36.5256 22.4253 36.1003 22.95 36.1003L39.9 36.1003C40.4247 36.1003 40.85 36.5256 40.85 37.0503C40.85 37.575 40.4247 38.0003 39.9 38.0003H22.95C22.4253 38.0003 22 37.575 22 37.0503Z" fill="#B2B3B4"/>
<defs>
<filter id="filter0_f" x="8.62001" y="43.77" width="39.7602" height="11.2602" filterUnits="userSpaceOnUse" color-interpolation-filters="sRGB">
<feFlood flood-opacity="0" result="BackgroundImageFix"/>
<feBlend mode="normal" in="SourceGraphic" in2="BackgroundImageFix" result="shape"/>
<feGaussianBlur stdDeviation="1.86504" result="effect1_foregroundBlur"/>
</filter>
</defs>
</svg>
