<svg width="16" height="16" viewBox="0 0 16 16" xmlns="http://www.w3.org/2000/svg"><path d="M.77 0h3.46c.21 0 .38.17.38.38v.77c0 .22-.17.39-.38.39h-2.7v2.7c0 .2-.16.38-.38.38H.38A.38.38 0 010 4.23V.77C0 .34.34 0 .77 0zm14.45 16h-3.46a.38.38 0 01-.38-.39v-.76c0-.22.17-.39.38-.39h2.7v-2.7c0-.2.17-.38.38-.38h.77c.21 0 .38.18.38.39v3.46c0 .43-.34.77-.77.77zM0 15.23v-3.46c0-.21.17-.39.38-.39h.77c.22 0 .39.18.39.39v2.7h2.69c.21 0 .38.16.38.38v.77c0 .2-.17.38-.38.38H.77a.77.77 0 01-.77-.77zM16 .78v3.46c0 .21-.17.38-.38.38h-.77a.38.38 0 01-.39-.38v-2.7h-2.69a.38.38 0 01-.38-.38V.4c0-.2.17-.38.38-.38h3.46c.43 0 .77.34.77.77zm-8 9.99a2.77 2.77 0 110-5.54 2.77 2.77 0 010 5.54z" fill="#1296db" fill-rule="nonzero"></path></svg>
