<svg t="1653392753429" 
class="icon" viewBox="0 0 1024 1024" 
version="1.1" xmlns="http://www.w3.org/2000/svg" 
p-id="5831" width="32" height="32">
<path d="M512 362.7c-82.3 0-149.3 67-149.3 149.3s67 149.3 149.3 149.3 149.3-67 149.3-149.3-67-149.3-149.3-149.3z m0 213.3c-35.3 0-64-28.7-64-64s28.7-64 64-64 64 28.7 64 64-28.7 64-64 64z" p-id="5832"></path><path d="M896 469.3h-45.3c-19.3-154.2-141.8-276.7-296-296V128c0-23.6-19.1-42.7-42.7-42.7s-42.7 19.1-42.7 42.7v45.3c-154.2 19.3-276.7 141.8-296 296H128c-23.6 0-42.7 19.1-42.7 42.7s19.1 42.7 42.7 42.7h45.3c19.3 154.2 141.8 276.7 296 296V896c0 23.6 19.1 42.7 42.7 42.7s42.7-19.1 42.7-42.7v-45.3c154.2-19.3 276.7-141.8 296-296H896c23.6 0 42.7-19.1 42.7-42.7s-19.1-42.7-42.7-42.7zM512 768c-141.2 0-256-114.8-256-256s114.8-256 256-256 256 114.8 256 256-114.8 256-256 256z" p-id="5833"></path>
</svg>