<svg xmlns="http://www.w3.org/2000/svg" width="20px" height="20px" viewBox="0 0 20 20" type="logout" cursor="pointer" fill="currentColor" overflow="visible" style="fill: rgb(117, 117, 125);"><path fill-rule="evenodd" d="M11.5 3.5a1.5 1.5 0 011.493 1.356L13 5v2a.5.5 0 01-.992.09L12 7V5a.5.5 0 00-.41-.492L11.5 4.5H5a.5.5 0 00-.492.41L4.5 5v10a.5.5 0 00.41.492L5 15.5h6.5a.5.5 0 00.492-.41L12 15v-2a.5.5 0 01.992-.09L13 13v2a1.5 1.5 0 01-1.356 1.493l-.144.007H5a1.5 1.5 0 01-1.493-1.356L3.5 15V5a1.5 1.5 0 011.356-1.493L5 3.5h6.5zm4.025 4.025l2.121 2.121a.5.5 0 01.145.311v.086a.49.49 0 01-.087.241l-.058.07-2.12 2.12a.5.5 0 01-.766-.637l.058-.07 1.268-1.267H9.5a.5.5 0 010-1h6.587l-1.269-1.268a.5.5 0 01.707-.707z"></path></svg>