<svg width="32" height="32" viewBox="0 0 32 32" fill="none" xmlns="http://www.w3.org/2000/svg" class=" uk-svg"><path fill-rule="evenodd" clip-rule="evenodd" d="M23.2 16a7.2 7.2 0 11-14.4 0 7.2 7.2 0 0114.4 0zm1.8 0a9 9 0 11-18 0 9 9 0 0118 0zm-12.666-1.833a1.375 1.375 0 100-2.75 1.375 1.375 0 000 2.75zm8.707-1.375a1.375 1.375 0 11-2.75 0 1.375 1.375 0 012.75 0zm-10.155 4.125c-.204 0-.357.177-.308.375.279 1.134 1.436 4.45 5.436 4.45s5.157-3.316 5.436-4.45c.049-.198-.104-.375-.308-.375H10.886z" fill="currentcolor"></path></svg>