<svg width="20px" height="20px" viewBox="0 0 20 20" xmlns="http://www.w3.org/2000/svg" type="setting" cursor="pointer" fill="currentColor" overflow="visible" style="fill: rgb(117, 117, 125);"><title>icon_web_accountsetting_20</title><path d="M11.5 2.5a1 1 0 011 1v1.046l.233.112.267.146c.088.05.175.104.26.158l.212.146.907-.523a1 1 0 011.366.366l1.5 2.598a1 1 0 01-.365 1.366l-.907.524.02.26c.01.2.01.402 0 .604l-.02.258.906.524a1 1 0 01.419 1.262l-.053.104-1.5 2.598a1 1 0 01-1.366.366l-.906-.523-.215.148c-.17.109-.344.21-.524.302l-.233.11L12.5 16.5a1 1 0 01-.883.993l-.117.007h-3a1 1 0 01-1-1v-1.048l-.233-.11L7 15.196a6.09 6.09 0 01-.26-.158l-.213-.147-.906.524a1 1 0 01-1.302-.268l-.064-.098-1.5-2.598a1 1 0 01.366-1.366l.906-.525-.02-.257a5.994 5.994 0 010-.605l.019-.26-.905-.523a1 1 0 01-.419-1.262l.053-.104 1.5-2.598a1 1 0 011.366-.366l.905.522.215-.146c.17-.11.344-.21.524-.302l.234-.112L7.5 3.5a1 1 0 01.883-.993L8.5 2.5zm0 1h-3l-.002 1.719-.318.124c-.47.183-.911.437-1.306.753l-.266.213L5.12 5.45l-1.5 2.598 1.486.86-.051.337c-.076.5-.076 1.008 0 1.508l.053.337-1.488.86 1.5 2.598 1.487-.858.266.213a5.043 5.043 0 001.308.755l.318.124V16.5h3v-1.718l.319-.124a4.994 4.994 0 001.306-.753l.267-.213 1.487.857 1.5-2.598-1.486-.859.051-.337c.076-.5.076-1.008 0-1.508l-.052-.337 1.487-.861-1.5-2.598-1.487.858-.266-.213a5.043 5.043 0 00-1.308-.755l-.318-.124V3.5zm-1.5 4a2.5 2.5 0 110 5 2.5 2.5 0 010-5zm0 1a1.5 1.5 0 100 3 1.5 1.5 0 000-3z" fill-rule="nonzero"></path></svg>