<svg xmlns="http://www.w3.org/2000/svg" width="20px" height="20px" viewBox="0 0 20 20" type="appearance_setting" cursor="pointer" fill="currentColor" overflow="visible" style="fill: rgb(117, 117, 125);"><path d="M8.063 3a.5.5 0 01.484.376 1.503 1.503 0 002.906 0A.502.502 0 0111.937 3H14c.152 0 .296.069.39.188l3.062 3.826a1.501 1.501 0 01-.76 2.379L15 9.877V15a1.5 1.5 0 01-1.356 1.493l-.144.007h-7A1.5 1.5 0 015 15V9.877l-1.692-.483A1.502 1.502 0 012.244 7.68l.033-.14c.055-.192.147-.37.271-.526L5.61 3.188A.497.497 0 016 3zm5.697 1h-1.47l-.054.119a2.503 2.503 0 01-2.056 1.375L10 5.5a2.5 2.5 0 01-2.236-1.381L7.709 4 6.24 3.999l-2.91 3.64a.5.5 0 00.252.793l2.055.587A.501.501 0 016 9.5V15a.5.5 0 00.5.5h7a.5.5 0 00.5-.5V9.5c0-.223.148-.42.363-.48l2.055-.588a.501.501 0 00.253-.793l-2.912-3.64zm-2.26 7a.5.5 0 010 1h-3a.5.5 0 010-1h3zm0-3a.5.5 0 010 1h-3a.5.5 0 010-1h3z"></path></svg>