<svg width="32" height="32" viewBox="0 0 32 32" fill="none" xmlns="http://www.w3.org/2000/svg" class=" uk-svg"><path fill-rule="evenodd" clip-rule="evenodd" d="M12.287 25.057c.519-.514.977-1.377 1.381-2.14.193-.363.373-.703.542-.972l1.549 1.519c.8.784 1.807.834 2.548.09l.907-.924c.575-.578.683-1.304.325-1.972.333-.108.641-.306.907-.57l3.847-3.822c.966-.957.94-2.104-.067-3.103l-6.719-6.66c-.65-.645-1.532-.67-2.14-.075-.258.256-.457.627-.566 1.114-.44 2.006-1.332 3.912-2.38 5.25-.167.223-.284.429-.35.643-.583-.181-1.183-.04-1.674.454l-.932.908c-.75.735-.708 1.725.1 2.526l1.523 1.527c-.263.16-.594.331-.949.515-.78.403-1.672.864-2.198 1.392-1.266 1.262-1.257 2.971.042 4.267 1.298 1.287 3.03 1.304 4.304.033zm5.853-5.918l-4.321-4.284h.008c-.366-.363-.458-.726-.016-1.354.89-1.279 1.831-3.111 2.39-5.133a.554.554 0 01.14-.256c.142-.14.317-.174.5.008l3.947 3.92c-.25 1.338-1.324 2.667-2.157 3.492l-.007.007c-.082.081-.189.187-.05.323.407.405 2.805-1.287 3.879-2.179l.524.52c.392.388.408.8.05 1.156l-3.821 3.788c-.366.363-.7.355-1.066-.008zm-9.133 2.616c-.683.677-.691 1.585-.009 2.262.675.677 1.59.66 2.282-.017.347-.34.85-1.234 1.329-2.082.334-.594.655-1.165.902-1.508.325-.421.7-.528 1.016-.215l2.09 2.072c.24.24.54.248.765.017l.558-.562c.225-.23.217-.511-.016-.75l-5.845-5.803c-.242-.24-.533-.24-.766-.017l-.566.562c-.225.222-.225.52.016.759l2.082 2.055c.325.322.208.685-.217 1.015-.348.249-.934.573-1.541.91-.847.469-1.736.961-2.08 1.302z" fill="currentcolor"></path><path d="M13.668 22.917l.11.059-.11-.059zm-1.381 2.14l-.088-.089.088.089zm1.923-3.112l.088-.09-.11-.108-.084.132.106.066zm1.549 1.519l.088-.09-.088.09zm2.548.09l.088.089-.088-.088zm.907-.924l-.088-.088h-.001l.09.088zm.325-1.972l-.039-.12-.142.046.07.133.11-.06zm.907-.57l.088.089-.088-.089zm3.847-3.822l-.088-.088.088.088zm-.067-3.103l.088-.089-.088.09zm-6.719-6.66l.088-.09-.088.09zm-2.14-.075l-.087-.09v.001l.088.089zm-.566 1.114l-.122-.027.122.027zm-2.38 5.25l-.1-.078v.003l.1.075zm-.35.643l-.038.12.12.037.037-.12-.12-.037zm-1.674.454l.087.09.002-.002-.089-.088zm-.932.908l-.088-.09v.001l.088.09zm.1 2.526l.088-.088-.089.088zm1.523 1.527l.065.107.136-.083-.112-.112-.089.088zm-.949.515l.054.113.003-.002-.057-.111zm0 0l-.054-.113-.004.002.058.11zM7.94 20.757l.088.088-.088-.088zm.042 4.267l-.089.088.089-.088zm5.836-10.169v-.125h-.304l.216.214.088-.089zm4.321 4.284l.088-.089-.088.089zm-4.313-4.284v.125h.304l-.216-.214-.088.09zm-.016-1.354l.102.072-.102-.072zm2.39-5.133l.12.033v-.003l-.12-.03zm.14-.256l-.087-.09.088.09zm.5.008l.088-.089-.088.089zm3.947 3.92l.123.024.012-.066-.047-.046-.088.088zm-2.157 3.492l.088.089-.088-.09zm-.007.007l.088.089-.088-.09zm-.05.323l.087-.089-.088.09zm3.879-2.179l.088-.089-.08-.08-.088.073.08.096zm.524.52l-.088.089.088-.089zm.05 1.156l.088.088-.088-.088zm-3.821 3.788l-.088-.089.088.09zm-10.208 4.87l.089-.088-.089.088zm.009-2.262l-.088-.088.088.088zM11.28 24l-.088-.089.088.09zm1.329-2.082l.108.061-.109-.061zm.902-1.508l-.1-.076-.002.003.102.073zm1.016-.215l.088-.088-.088.088zm2.09 2.072l-.088.089.087-.089zm.765.017l-.088-.088h-.001l.09.088zm.558-.562l.089.088-.089-.088zm-.016-.75l.09-.088-.002-.002-.088.09zm-5.845-5.803l.088-.089-.088.089zm-.766-.017l-.087-.09-.001.002.088.088zm-.566.562l.088.088-.088-.088zm.016.759l-.088.089.088-.09zm2.082 2.055l.088-.089-.088.09zm-.217 1.015l.073.102.004-.003-.077-.099zm-1.541.91l-.06-.11.06.11zm2.47 2.405c-.407.769-.856 1.612-1.358 2.11l.176.178c.536-.531 1.002-1.414 1.404-2.17l-.221-.117zm.547-.98c-.172.274-.354.619-.546.98l.22.118c.194-.365.372-.7.538-.964l-.212-.133zm1.742 1.497l-1.548-1.52-.175.18 1.548 1.518.175-.178zm2.372.091c-.348.35-.752.507-1.158.491-.408-.016-.831-.207-1.213-.582l-.176.178c.418.41.898.635 1.379.654.482.019.953-.17 1.345-.564l-.177-.177zm.907-.923l-.908.924.179.175.907-.924-.178-.175zm.304-1.826c.33.617.234 1.284-.303 1.825l.177.176c.611-.614.731-1.4.346-2.12l-.22.119zm.93-.718a2.18 2.18 0 01-.859.54l.077.238a2.43 2.43 0 00.957-.6l-.176-.178zm3.846-3.821l-3.847 3.821.177.178 3.846-3.822-.176-.177zm-.067-2.926c.488.483.726.99.737 1.481.01.49-.206.984-.67 1.445l.176.177c.501-.497.756-1.054.744-1.627-.013-.573-.29-1.138-.81-1.654l-.177.178zM17.42 6.59l6.72 6.66.175-.177-6.719-6.66-.176.177zm-1.964-.074c.554-.542 1.359-.527 1.964.074l.176-.178c-.693-.687-1.653-.721-2.315-.074l.175.178zm-.531 1.052c.104-.468.294-.817.532-1.052l-.176-.178c-.279.276-.488.67-.6 1.176l.244.054zm-2.405 5.3c1.062-1.354 1.96-3.278 2.405-5.3l-.245-.054c-.437 1.99-1.32 3.879-2.357 5.2l.197.154zm-.33.604c.062-.197.17-.39.331-.607l-.2-.15c-.172.23-.297.45-.369.682l.239.075zm-1.703.504c.46-.463 1.011-.59 1.547-.422l.075-.239c-.63-.196-1.277-.041-1.8.485l.178.176zm-.934.91l.932-.908-.174-.18-.933.909.175.179zm.1 2.347c-.386-.383-.58-.802-.596-1.204-.017-.4.143-.798.496-1.143l-.175-.179c-.397.389-.59.853-.571 1.332.019.478.25.954.67 1.372l.176-.178zm1.525 1.528l-1.524-1.527-.177.176L11 18.938l.177-.176zm-.98.714c.353-.183.689-.356.956-.52l-.13-.213c-.258.158-.585.327-.941.51l.114.223zm-.004.002l-.108-.226.108.226zm-2.164 1.367c.51-.51 1.382-.963 2.167-1.37l-.114-.221c-.774.4-1.686.87-2.23 1.414l.177.177zm.042 4.09c-.63-.628-.94-1.349-.946-2.058-.006-.71.292-1.421.904-2.032l-.176-.177c-.654.652-.984 1.426-.978 2.21.007.785.35 1.567 1.02 2.234l.176-.177zm4.128.033c-.616.615-1.336.913-2.054.907-.717-.006-1.445-.316-2.074-.94l-.176.178c.669.663 1.457 1.005 2.248 1.012.792.006 1.574-.323 2.232-.98l-.176-.177zm1.532-10.024l4.321 4.284.176-.178-4.321-4.284-.176.178zm.096-.214h-.008v.25h.008v-.25zm-.119-1.3c-.227.323-.333.6-.317.855.017.259.155.467.348.659l.176-.178c-.173-.171-.263-.326-.274-.496-.011-.174.058-.393.272-.697l-.205-.143zm2.372-5.096c-.554 2.008-1.488 3.827-2.372 5.096l.205.143c.899-1.29 1.846-3.135 2.408-5.172l-.241-.067zm.174-.311a.678.678 0 00-.175.314l.242.061c.02-.08.06-.15.109-.198l-.176-.177zm.675.008a.484.484 0 00-.358-.16.48.48 0 00-.317.152l.176.177c.057-.056.108-.078.15-.08.04-.001.099.015.173.089l.176-.178zm3.947 3.92l-3.947-3.92-.176.178 3.947 3.92.176-.177zm-2.157 3.67c.836-.829 1.934-2.18 2.192-3.558l-.246-.045c-.242 1.297-1.292 2.603-2.122 3.425l.176.178zm-.007.007l.007-.007-.176-.178-.006.007.175.178zm-.05.145c-.024-.023-.029-.036-.03-.04l.002-.01a.14.14 0 01.024-.039.785.785 0 01.054-.056l-.175-.178c-.036.035-.107.102-.138.187a.263.263 0 00-.008.16.342.342 0 00.094.154l.176-.178zm3.711-2.186a21.148 21.148 0 01-2.175 1.565c-.39.24-.755.438-1.043.549a1.37 1.37 0 01-.353.096c-.093.008-.129-.012-.14-.024l-.177.178c.09.089.218.105.339.095.123-.011.267-.052.421-.112.31-.12.69-.326 1.084-.57a21.386 21.386 0 002.204-1.585l-.16-.192zm.692.527l-.524-.52-.176.178.524.52.177-.178zm.05 1.333c.198-.195.304-.42.293-.66-.01-.237-.133-.465-.343-.673l-.176.178c.182.18.263.352.27.507.006.152-.059.311-.22.47l.176.178zm-3.821 3.789l3.821-3.789-.176-.177-3.821 3.788.176.178zm-1.242-.008c.194.192.399.31.62.312.221.003.427-.11.622-.304l-.176-.178c-.171.17-.316.234-.444.232-.128-.001-.274-.07-.446-.24l-.176.178zm-8.966 4.7c-.32-.318-.472-.683-.47-1.041.001-.359.157-.724.479-1.043l-.176-.177c-.362.358-.551.785-.554 1.218-.002.435.183.862.545 1.22l.176-.177zm2.106-.017c-.326.32-.698.476-1.06.48-.363.004-.729-.145-1.045-.462l-.177.176c.358.36.787.54 1.224.536.436-.004.868-.194 1.233-.551l-.175-.179zm1.307-2.055c-.239.425-.483.859-.71 1.228-.23.373-.435.67-.597.827l.175.179c.186-.182.406-.503.635-.875.23-.374.477-.812.715-1.236l-.218-.122zm.91-1.519c-.251.35-.577.929-.91 1.52l.218.122c.336-.596.654-1.16.895-1.496l-.203-.146zm1.206-.23c-.184-.182-.399-.253-.621-.202-.213.05-.41.207-.582.429l.198.152c.153-.199.306-.306.44-.337.125-.03.256.003.389.135l.176-.177zm2.09 2.071l-2.09-2.071-.176.177 2.09 2.072.175-.178zm.588.018a.382.382 0 01-.284.13.454.454 0 01-.305-.148l-.175.178a.701.701 0 00.474.22.63.63 0 00.47-.205l-.18-.175zm.559-.562l-.558.561.177.177.558-.562-.177-.176zm-.018-.576c.1.103.143.205.145.295.002.089-.035.186-.128.282l.179.174a.64.64 0 00.199-.462.692.692 0 00-.216-.463l-.179.174zm-5.843-5.8l5.845 5.802.176-.177-5.845-5.803-.176.178zm-.592-.015a.414.414 0 01.292-.13.44.44 0 01.3.145l.176-.178a.687.687 0 00-.472-.218.662.662 0 00-.469.2l.173.18zm-.564.56l.566-.562-.176-.178-.566.562.176.177zm.016.581a.436.436 0 01-.146-.299.39.39 0 01.13-.283l-.176-.177a.638.638 0 00-.204.464c.003.17.081.335.22.473l.176-.178zm2.082 2.055l-2.082-2.055-.175.178 2.081 2.055.176-.178zm-.228 1.203c.222-.173.383-.368.434-.58.054-.223-.019-.437-.206-.623l-.176.178c.138.136.168.264.14.386-.033.133-.143.284-.345.442l.153.197zm-1.558.92c.605-.335 1.199-.664 1.554-.917l-.145-.203c-.34.243-.92.563-1.53.901l.121.22zm-2.052 1.282c.16-.159.456-.36.828-.585.368-.223.8-.462 1.224-.697l-.12-.219c-.424.235-.86.476-1.234.702-.37.224-.69.44-.874.622l.176.177z" fill="currentcolor"></path></svg>