<svg width="20px" height="20px" viewBox="0 0 20 20" xmlns="http://www.w3.org/2000/svg" type="trash_fulfill" cursor="pointer" fill="currentColor" overflow="visible" style="margin-right: 8px;"><title>icon_web_recycle_20_fill</title><path d="M16.5 5a.5.5 0 110 1h-1v9.5a1.5 1.5 0 01-1.356 1.493L14 17H6a1.5 1.5 0 01-1.493-1.356L4.5 15.5V6h-1a.5.5 0 010-1h13zm-8 3a.5.5 0 00-.492.41L8 8.5v5a.5.5 0 00.992.09L9 13.5v-5a.5.5 0 00-.5-.5zm3 0a.5.5 0 00-.492.41L11 8.5v5a.5.5 0 00.992.09L12 13.5v-5a.5.5 0 00-.5-.5zm2-5.5a.5.5 0 110 1h-7a.5.5 0 010-1h7z" fill="#696A6B" fill-rule="evenodd"></path></svg>