<svg width="20px" height="20px" viewBox="0 0 20 20" xmlns="http://www.w3.org/2000/svg" type="docheader_mindmap" cursor="pointer" fill="currentColor" overflow="visible" style="margin-right: 2px;"><path d="M17 15a.5.5 0 110 1h-6.5a.5.5 0 110-1H17zM7.5 4a.5.5 0 010 1 2.5 2.5 0 00-2.495 2.336L5 7.5v2h2.5a.5.5 0 010 1H5v2A2.5 2.5 0 007.5 15a.5.5 0 110 1 3.5 3.5 0 01-3.495-3.308L4 12.5v-2H2.5a.5.5 0 110-1H4v-2A3.5 3.5 0 017.5 4zM17 9.5a.5.5 0 110 1h-6.5a.5.5 0 110-1H17zM17 4a.5.5 0 110 1h-6.5a.5.5 0 110-1H17z" fill-rule="evenodd"></path></svg>