<svg width="20px" height="20px" viewBox="0 0 20 20" xmlns="http://www.w3.org/2000/svg" type="upload" cursor="pointer" fill="currentColor" overflow="visible"><title>icon_web_upload</title><path d="M15.5 11.5a.5.5 0 01.492.41L16 12v2.5a1.5 1.5 0 01-1.356 1.493L14.5 16h-9a1.5 1.5 0 01-1.493-1.356L4 14.5V12a.5.5 0 01.992-.09L5 12v2.5a.5.5 0 00.41.492L5.5 15h9a.5.5 0 00.492-.41L15 14.5V12a.5.5 0 01.5-.5zM10 4c.143 0 .271.06.362.156l3.552 3.551a.5.5 0 01-.707.707l-2.706-2.706L10.5 12.5a.5.5 0 11-1 0V5.707L6.794 8.414a.5.5 0 11-.707-.707L9.62 4.172l.013-.013A.499.499 0 0110 4z" fill-rule="evenodd"></path></svg>