<svg xmlns="http://www.w3.org/2000/svg" width="20px" height="20px" viewBox="0 0 20 20" type="cooperation_fulfill" cursor="pointer" fill="currentColor" overflow="visible" style="margin-right: 8px;"><path d="M8.41 3.4c2.53 0 4.412 2.065 4.19 4.593a5.403 5.403 0 01-1.102 2.836c1.35.425 2.265 1.277 2.674 2.342.781 2.037-.96 2.929-5.762 2.929l-.608-.005c-4.33-.074-5.868-.968-5.145-2.919.395-1.064 1.31-1.92 2.666-2.348a5.38 5.38 0 01-1.105-2.834C3.998 5.464 5.88 3.4 8.41 3.4zm5.24 6.814v-.026l.007-.058.001-.006.004-.019c.005-.02.01-.042.018-.062l-.022.081a.512.512 0 01.084-.199l.019-.025c.012-.016.026-.03.04-.045l.017-.015c.771-.684 1.291-1.721 1.386-2.834.17-1.945-1.252-3.506-3.194-3.506a.5.5 0 110-1c2.53 0 4.412 2.065 4.19 4.593a5.4 5.4 0 01-1.12 2.86c1.467.545 2.45 1.756 2.733 3.326a.5.5 0 01-.984.178c-.261-1.45-1.255-2.475-2.769-2.751l-.022-.005a.386.386 0 01-.058-.017l.08.022a.542.542 0 01-.108-.033l-.048-.024-.036-.022-.035-.026a.614.614 0 01-.045-.043l-.012-.012a.478.478 0 01-.037-.048l.037.048a.599.599 0 01-.058-.08l-.011-.021a.463.463 0 01-.056-.203v-.015l-.001-.013z"></path></svg>